<svg width="24" height="26" viewBox="0 0 24 26" fill="none" xmlns="http://www.w3.org/2000/svg">
<g clip-path="url(#clip0_46_26130)">
<path fill-rule="evenodd" clip-rule="evenodd" d="M2.96714 13.8608C2.96714 12.6935 3.18779 11.577 3.59137 10.553L1.20004 6.87735C-0.10312 8.88772 -0.859368 11.2866 -0.859368 13.8608C-0.859368 18.6209 1.72621 22.7774 5.56969 25.0009L7.48389 21.6873C4.78327 20.1239 2.96714 17.2046 2.96714 13.8608Z" fill="#242424"/>
<path fill-rule="evenodd" clip-rule="evenodd" d="M21.5791 5.27628L12.0006 9.06128L2.42393 5.27628L6.31268 11.2527L12.0006 19.9995L17.6904 11.2527L21.5791 5.27628Z" fill="#242424"/>
<path fill-rule="evenodd" clip-rule="evenodd" d="M21.0358 13.8609C21.0358 17.2046 19.2197 20.124 16.519 21.6874L18.4332 25.0009C22.2767 22.7756 24.8623 18.6209 24.8623 13.8609C24.8623 11.2848 24.1061 8.88778 22.8029 6.87552L20.4116 10.553C20.8151 11.5771 21.0358 12.6916 21.0358 13.8609Z" fill="#242424"/>
<path fill-rule="evenodd" clip-rule="evenodd" d="M3.95309 3.82779L8.37743 5.58168L12.0021 7.01873L15.625 5.58168L20.0493 3.82779C17.8466 2.05881 15.0479 0.998932 12.0003 0.998932C8.95452 0.998932 6.15583 2.05881 3.95309 3.82779Z" fill="#242424"/>
</g>
<defs>
<clipPath id="clip0_46_26130">
<rect width="24" height="25.7219" fill="white" transform="translate(0 0.139038)"/>
</clipPath>
</defs>
</svg>
